<mxfile host="app.diagrams.net" modified="2023-01-02T04:54:32.094Z" agent="5.0 (Windows NT 10.0; Win64; x64) AppleWebKit/537.36 (KHTML, like Gecko) Chrome/108.0.0.0 Safari/537.36" version="20.7.4" etag="IUbYySGTyLknnJ5XgFNp" type="github">
  <diagram id="2S6G8eUTjCZZO_-O53Ji" name="Page-1">
    <mxGraphModel dx="1034" dy="438" grid="1" gridSize="10" guides="1" tooltips="1" connect="1" arrows="1" fold="1" page="1" pageScale="1" pageWidth="850" pageHeight="1100" math="0" shadow="0">
      <root>
        <mxCell id="0" />
        <mxCell id="1" parent="0" />
        <mxCell id="g9WpiMWulpGOtDTVCXbg-11" style="edgeStyle=orthogonalEdgeStyle;rounded=0;orthogonalLoop=1;jettySize=auto;html=1;entryX=0;entryY=0.5;entryDx=0;entryDy=0;" edge="1" parent="1" source="g9WpiMWulpGOtDTVCXbg-5" target="g9WpiMWulpGOtDTVCXbg-6">
          <mxGeometry relative="1" as="geometry" />
        </mxCell>
        <mxCell id="g9WpiMWulpGOtDTVCXbg-5" value="LB" style="whiteSpace=wrap;html=1;" vertex="1" parent="1">
          <mxGeometry x="30" y="80" width="120" height="60" as="geometry" />
        </mxCell>
        <mxCell id="g9WpiMWulpGOtDTVCXbg-12" style="edgeStyle=orthogonalEdgeStyle;rounded=0;orthogonalLoop=1;jettySize=auto;html=1;entryX=0;entryY=0.75;entryDx=0;entryDy=0;" edge="1" parent="1" source="g9WpiMWulpGOtDTVCXbg-6" target="g9WpiMWulpGOtDTVCXbg-8">
          <mxGeometry relative="1" as="geometry" />
        </mxCell>
        <mxCell id="g9WpiMWulpGOtDTVCXbg-6" value="tomcat" style="rounded=1;whiteSpace=wrap;html=1;" vertex="1" parent="1">
          <mxGeometry x="70" y="240" width="120" height="60" as="geometry" />
        </mxCell>
        <mxCell id="g9WpiMWulpGOtDTVCXbg-14" style="edgeStyle=orthogonalEdgeStyle;rounded=0;orthogonalLoop=1;jettySize=auto;html=1;entryX=0;entryY=0.5;entryDx=0;entryDy=0;" edge="1" parent="1" source="g9WpiMWulpGOtDTVCXbg-7" target="g9WpiMWulpGOtDTVCXbg-9">
          <mxGeometry relative="1" as="geometry" />
        </mxCell>
        <mxCell id="g9WpiMWulpGOtDTVCXbg-7" value="controller" style="rounded=0;whiteSpace=wrap;html=1;" vertex="1" parent="1">
          <mxGeometry x="440" y="310" width="120" height="60" as="geometry" />
        </mxCell>
        <mxCell id="g9WpiMWulpGOtDTVCXbg-13" style="edgeStyle=orthogonalEdgeStyle;rounded=0;orthogonalLoop=1;jettySize=auto;html=1;" edge="1" parent="1" source="g9WpiMWulpGOtDTVCXbg-8" target="g9WpiMWulpGOtDTVCXbg-7">
          <mxGeometry relative="1" as="geometry" />
        </mxCell>
        <mxCell id="g9WpiMWulpGOtDTVCXbg-8" value="dispatcher servlet" style="rounded=1;whiteSpace=wrap;html=1;" vertex="1" parent="1">
          <mxGeometry x="250" y="280" width="120" height="60" as="geometry" />
        </mxCell>
        <mxCell id="g9WpiMWulpGOtDTVCXbg-9" value="Service" style="rounded=0;whiteSpace=wrap;html=1;" vertex="1" parent="1">
          <mxGeometry x="640" y="350" width="120" height="60" as="geometry" />
        </mxCell>
        <mxCell id="g9WpiMWulpGOtDTVCXbg-10" value="Tomcat maximum threads 200 max" style="text;html=1;align=center;verticalAlign=middle;resizable=0;points=[];autosize=1;strokeColor=none;fillColor=none;" vertex="1" parent="1">
          <mxGeometry x="100" y="190" width="210" height="30" as="geometry" />
        </mxCell>
      </root>
    </mxGraphModel>
  </diagram>
</mxfile>
